<svg id="Layer_1" data-name="Layer 1" xmlns="http://www.w3.org/2000/svg" viewBox="0 0 99.56 99.56"><defs><style>.cls-1{fill:#2968b2;}.cls-2{fill:#fff;}</style></defs><text x="-0.22" y="-0.22"/><circle class="cls-1" cx="49.78" cy="49.78" r="49.78"/><path class="cls-2" d="M53.85,43.21c.82-.92,1.49-1.85,2.33-2.64a12.77,12.77,0,0,1,9.2-3.63,20.92,20.92,0,0,1,5.79.7c4.32,1.25,6.83,4.22,8,8.44a35.91,35.91,0,0,1,1.07,9.68c0,6.88,0,13.75,0,20.63,0,.64-.18.81-.81.81-3.54,0-7.09,0-10.63,0-.62,0-.76-.19-.76-.78q0-9.81,0-19.63a17.79,17.79,0,0,0-.57-4.87,5.48,5.48,0,0,0-6-4.27c-4.2.22-6.38,2.3-6.92,6.57a24.21,24.21,0,0,0-.19,3.07c0,6.36,0,12.73,0,19.09,0,.63-.16.82-.8.82-3.57,0-7.14,0-10.71,0-.57,0-.74-.15-.74-.73q0-18.88,0-37.79c0-.62.21-.77.8-.76,3.39,0,6.77,0,10.16,0,.63,0,.79.2.77.79C53.83,40.2,53.85,41.7,53.85,43.21Z" transform="translate(-0.22 -0.22)"/><path class="cls-2" d="M34.44,57.61c0,6.23,0,12.46,0,18.69,0,.7-.17.91-.89.9-3.54,0-7.08,0-10.62,0-.57,0-.74-.13-.74-.72q0-18.93,0-37.86c0-.52.13-.71.68-.7,3.6,0,7.19,0,10.78,0,.69,0,.78.26.78.86Q34.43,48.18,34.44,57.61Z" transform="translate(-0.22 -0.22)"/><path class="cls-2" d="M35.42,25.4a7.08,7.08,0,1,1-7.06-7A7.1,7.1,0,0,1,35.42,25.4Z" transform="translate(-0.22 -0.22)"/></svg>