<svg id="Layer_1" data-name="Layer 1" xmlns="http://www.w3.org/2000/svg" viewBox="0 0 99.39 99.39"><defs><style>.cls-1{fill:#4395d1;}.cls-2{fill:#fff;}</style></defs><text x="-1.17" y="-0.31"/><circle class="cls-1" cx="49.69" cy="49.69" r="49.69"/><path class="cls-2" d="M40.82,78.62c24.27,0,37.54-20.11,37.54-37.54,0-.58,0-1.14,0-1.71a27,27,0,0,0,6.58-6.83,26,26,0,0,1-7.58,2.07,13.16,13.16,0,0,0,5.8-7.29,26.43,26.43,0,0,1-8.37,3.2,13.2,13.2,0,0,0-22.83,9,12.92,12.92,0,0,0,.34,3,37.47,37.47,0,0,1-27.2-13.78,13.19,13.19,0,0,0,4.08,17.61,13,13,0,0,1-6-1.65,1,1,0,0,0,0,.17A13.21,13.21,0,0,0,33.76,57.84a13.28,13.28,0,0,1-3.48.46,12.72,12.72,0,0,1-2.48-.24,13.22,13.22,0,0,0,12.33,9.17,26.49,26.49,0,0,1-16.39,5.65,25.37,25.37,0,0,1-3.15-.19,37.31,37.31,0,0,0,20.23,5.93" transform="translate(-1.17 -0.31)"/></svg>