<svg id="Layer_1" data-name="Layer 1" xmlns="http://www.w3.org/2000/svg" viewBox="0 0 99.38 99.38"><defs><style>.cls-1{fill:#4373b9;}.cls-2{fill:#fff;}</style></defs><path class="cls-1" d="M99.69,50A49.69,49.69,0,1,0,42.24,99.09V64.36H29.62V50H42.24v-11c0-12.45,7.41-19.33,18.76-19.33a76.55,76.55,0,0,1,11.13,1V32.92H65.86c-6.17,0-8.1,3.83-8.1,7.76V50H71.55L69.34,64.36H57.76V99.09A49.71,49.71,0,0,0,99.69,50Z" transform="translate(-0.31 -0.31)"/><path class="cls-2" d="M69.34,64.36,71.55,50H57.76V40.68c0-3.93,1.93-7.76,8.1-7.76h6.27V20.69a76.55,76.55,0,0,0-11.13-1c-11.35,0-18.76,6.88-18.76,19.33V50H29.62V64.36H42.24V99.09a50.48,50.48,0,0,0,15.52,0V64.36Z" transform="translate(-0.31 -0.31)"/><text x="-0.31" y="-0.31"/></svg>